<svg viewBox="0 0 540 240" fill="none" xmlns="http://www.w3.org/2000/svg">
  <defs>
    <linearGradient id="gpsLimeGrad" x1="0%" y1="0%" x2="0%" y2="100%">
      <stop offset="0%" stop-color="#c4f738" />
      <stop offset="25%" stop-color="#9ee312" />
      <stop offset="70%" stop-color="#76be08" />
      <stop offset="100%" stop-color="#4f8502" />
    </linearGradient>
    <linearGradient id="bevelLight" x1="0%" y1="0%" x2="0%" y2="100%">
      <stop offset="0%" stop-color="#ffffff" stop-opacity="0.85" />
      <stop offset="100%" stop-color="#a3e635" stop-opacity="0.2" />
    </linearGradient>
    <radialGradient id="pinRedGrad" cx="35%" cy="30%" r="70%">
      <stop offset="0%" stop-color="#ff5252" />
      <stop offset="45%" stop-color="#e50914" />
      <stop offset="85%" stop-color="#990000" />
      <stop offset="100%" stop-color="#550000" />
    </radialGradient>
    <filter id="pinShadow" x="-20%" y="-20%" width="150%" height="150%">
      <feDropShadow dx="0" dy="4" stdDeviation="3" flood-color="#000000" flood-opacity="0.7" />
    </filter>
    <linearGradient id="whiteMetallic" x1="0%" y1="0%" x2="0%" y2="100%">
      <stop offset="0%" stop-color="#ffffff" />
      <stop offset="50%" stop-color="#f8fafc" />
      <stop offset="75%" stop-color="#cbd5e1" />
      <stop offset="100%" stop-color="#94a3b8" />
    </linearGradient>
  </defs>

  <!-- TOP TEXT: DESCOMPLICANDO -->
  <g transform="translate(10, 48) skewX(-14)">
    <text x="32" y="26" font-family="'Space Grotesk', 'Impact', 'Arial Black', sans-serif" font-weight="900" font-size="34" letter-spacing="2" fill="#090d0b" stroke="#090d0b" stroke-width="8" stroke-linejoin="round">DESCOMPLICANDO</text>
    <text x="32" y="26" font-family="'Space Grotesk', 'Impact', 'Arial Black', sans-serif" font-weight="900" font-size="34" letter-spacing="2" fill="url(#whiteMetallic)" stroke="#1e293b" stroke-width="1.5" stroke-linejoin="round">DESCOMPLICANDO</text>
  </g>

  <!-- GIANT 3D BEVELED "GPS" TEXT WITH FURROWS -->
  <g transform="translate(0, 78) skewX(-14)">
    <!-- LETTER G -->
    <path d="M 120 10 L 55 10 C 22 10 10 32 10 65 L 10 85 C 10 120 25 140 60 140 L 118 140 C 126 140 130 135 130 125 L 130 92 L 78 92 L 78 108 L 108 108 L 108 122 L 62 122 C 42 122 34 110 34 85 L 34 65 C 34 40 42 28 62 28 L 120 28 Z" fill="#182e02" transform="translate(4, 6)" />
    <path d="M 120 10 L 55 10 C 22 10 10 32 10 65 L 10 85 C 10 120 25 140 60 140 L 118 140 C 126 140 130 135 130 125 L 130 92 L 78 92 L 78 108 L 108 108 L 108 122 L 62 122 C 42 122 34 110 34 85 L 34 65 C 34 40 42 28 62 28 L 120 28 Z" fill="url(#gpsLimeGrad)" stroke="#1c3302" stroke-width="3.5" stroke-linejoin="round" />
    <!-- Furrows in G -->
    <g stroke="#142600" stroke-width="4" stroke-linecap="round" fill="none">
      <path d="M 12 115 Q 38 108 65 108" />
      <path d="M 16 124 Q 46 116 80 116" />
      <path d="M 24 133 Q 56 124 95 124" />
      <path d="M 38 139 Q 68 132 110 132" />
    </g>
    <path d="M 118 13 L 56 13 C 25 13 14 34 14 65 L 14 85" stroke="url(#bevelLight)" stroke-width="3" fill="none" stroke-linecap="round" />

    <!-- LETTER P -->
    <path d="M 148 10 L 225 10 C 255 10 268 28 268 55 C 268 82 252 98 222 98 L 176 98 L 176 140 L 148 140 Z" fill="#182e02" transform="translate(4, 6)" />
    <path d="M 148 10 L 225 10 C 255 10 268 28 268 55 C 268 82 252 98 222 98 L 176 98 L 176 140 L 148 140 Z" fill="url(#gpsLimeGrad)" stroke="#1c3302" stroke-width="3.5" stroke-linejoin="round" />
    <path d="M 176 28 L 218 28 C 236 28 244 38 244 54 C 244 70 236 80 218 80 L 176 80 Z" fill="#090d0b" stroke="#1c3302" stroke-width="2.5" />
    <path d="M 151 13 L 223 13 C 250 13 264 29 264 54" stroke="url(#bevelLight)" stroke-width="3" fill="none" stroke-linecap="round" />

    <!-- LETTER S -->
    <path d="M 288 38 L 380 38 L 380 54 L 316 54 C 300 54 292 62 292 74 C 292 86 304 94 324 94 L 368 94 C 392 94 404 108 404 124 C 404 140 388 140 368 140 L 278 140 L 278 124 L 364 124 C 376 124 380 120 380 114 C 380 108 372 106 356 106 L 312 106 C 284 106 270 94 270 74 C 270 48 282 38 308 38 Z" fill="#182e02" transform="translate(4, 6)" />
    <path d="M 288 38 L 388 38 L 388 54 L 316 54 C 300 54 292 62 292 74 C 292 86 304 94 324 94 L 368 94 C 392 94 404 108 404 124 C 404 140 388 140 368 140 L 278 140 L 278 124 L 364 124 C 376 124 380 120 380 114 C 380 108 372 106 356 106 L 312 106 C 284 106 270 94 270 74 C 270 48 282 38 308 38 Z" fill="url(#gpsLimeGrad)" stroke="#1c3302" stroke-width="3.5" stroke-linejoin="round" />
    <!-- Furrows in S -->
    <g stroke="#142600" stroke-width="3.5" stroke-linecap="round" fill="none">
      <line x1="324" y1="140" x2="340" y2="124" />
      <line x1="338" y1="140" x2="354" y2="124" />
      <line x1="352" y1="140" x2="368" y2="124" />
      <line x1="366" y1="140" x2="382" y2="124" />
      <line x1="380" y1="140" x2="394" y2="126" />
    </g>
    <path d="M 310 41 L 385 41" stroke="url(#bevelLight)" stroke-width="3" fill="none" stroke-linecap="round" />
  </g>

  <!-- 3D RED LOCATION PIN ABOVE S -->
  <g transform="translate(378, 12)" filter="url(#pinShadow)">
    <path d="M 28 0 C 12.5 0 0 12.5 0 28 C 0 46 25 72 28 75 C 31 72 56 46 56 28 C 56 12.5 43.5 0 28 0 Z" fill="url(#pinRedGrad)" stroke="#7f1d1d" stroke-width="2" />
    <circle cx="28" cy="27" r="12.5" fill="#3b0707" stroke="#991b1b" stroke-width="2" />
    <path d="M 12 14 C 16 8 23 4 30 4 C 34 4 38 5 42 8 C 36 6 28 6 22 9 C 16 12 12 18 10 24 C 10 20 11 16 12 14 Z" fill="#ffffff" opacity="0.75" />
    <circle cx="20" cy="18" r="2.5" fill="#ffffff" opacity="0.8" />
  </g>
</svg>
